<?xml version="1.0" encoding="utf-8"?>
<!-- Generator: Adobe Illustrator 26.0.0, SVG Export Plug-In . SVG Version: 6.00 Build 0)  -->
<svg version="1.1" id="Capa_1" xmlns="http://www.w3.org/2000/svg" xmlns:xlink="http://www.w3.org/1999/xlink" x="0px" y="0px"
	 viewBox="0 0 192.76 37.5" style="enable-background:new 0 0 192.76 37.5;" xml:space="preserve">
<style type="text/css">
	.st0{fill-rule:evenodd;clip-rule:evenodd;fill:#CD3B25;}
</style>
<polygon class="st0" points="17.25,32.92 9.82,32.92 9.82,11.61 1.22,11.61 1.22,5.21 26.31,5.21 26.31,11.61 17.25,11.61 
	17.25,32.92 17.25,32.92 "/>
<path class="st0" d="M29.83,12.52C30.95,6,36.77,5.04,42.33,5.04c9.56,0,12.92,2.37,12.92,12.38c0,10.26-0.25,15.71-12.71,15.71
	c-4.94,0-10.84-0.37-12.51-6.07c-0.54-1.87-0.58-3.82-0.58-5.78l0,0v-2.04l0,0C29.45,17.05,29.45,14.72,29.83,12.52L29.83,12.52
	L29.83,12.52L29.83,12.52z M37.06,20.79c0,3.91,0.08,5.98,4.69,5.98c5.07,0,5.86-1.25,5.86-5.98c0-1.33,0.04-2.7,0.04-4.03
	c0-3.7-0.58-5.36-4.57-5.36c-5.82,0-5.9,0.58-6.02,7.73l0,0V20.79L37.06,20.79L37.06,20.79z"/>
<path class="st0" d="M76.98,13.85c0-2.83-1-3.2-3.66-3.2l0,0h-0.75l0,0c-1.95,0-4.03,0.08-4.03,2.53c0,1.7,0.5,2.49,2.28,2.62
	c6.44,0.54,14.04-0.75,14.04,8.18c0,2.37,0,5.36-1.95,7.02c-2.29,1.91-5.44,2.08-8.35,2.08l0,0h-1.83l0,0
	c-7.64,0-11.63-0.33-11.63-9.14l0,0h7.06l0,0c0,2.08,0.5,3.32,2.83,3.32l0,0h3.2l0,0c1.87,0,3.37-0.25,3.37-2.74
	c0-2.45-1.45-2.45-3.53-2.58c-8.02-0.54-12.88,0.21-12.88-9.02c0-4.82,1.91-7.35,6.86-7.73C69.62,5.08,71.24,5,72.87,5
	c6.44,0,11.22,0.12,11.22,7.98c0,0.29-0.04,0.58-0.04,0.87l0,0H76.98L76.98,13.85L76.98,13.85z"/>
<polygon class="st0" points="115.19,32.92 107.75,32.92 107.75,22.03 98.11,22.03 98.11,32.92 90.67,32.92 90.67,5.21 98.11,5.21 
	98.11,15.68 107.75,15.68 107.75,5.21 115.19,5.21 115.19,32.92 115.19,32.92 "/>
<polygon class="st0" points="129.71,32.92 122.27,32.92 122.27,5.21 129.71,5.21 129.71,32.92 129.71,32.92 "/>
<path class="st0" d="M136.84,5.21h15.08l0,0c5.03,0,8.27,1.37,8.27,7.06c0,3.2-0.29,5.77-4.32,6.44l0,0v0.25l0,0
	c3.74,0.33,4.78,2.33,4.78,5.98c0,6.23-2.08,7.98-8.6,7.98l0,0h-15.21V5.21L136.84,5.21L136.84,5.21z M149.02,16.3
	c2.04-0.08,3.82,0.17,3.82-2.37c0-1.99-0.54-2.62-2.53-2.62l0,0h-6.02v4.99H149.02L149.02,16.3L149.02,16.3z M149.22,26.81
	c2.33,0,4.03-0.04,4.03-2.74c0-2.58-1.2-2.66-3.53-2.66l0,0h-5.44v5.4H149.22L149.22,26.81L149.22,26.81z"/>
<path class="st0" d="M183.58,32.92h7.56L182.7,5.21h-11.26l-8.31,27.71h7.73l1.58-5.57h9.52L183.58,32.92L183.58,32.92L183.58,32.92
	z M173.97,21.99l3.21-11.26l3.25,11.26H173.97L173.97,21.99L173.97,21.99z"/>
</svg>
