<?xml version="1.0" encoding="utf-8"?>
<!-- Generator: Adobe Illustrator 26.0.0, SVG Export Plug-In . SVG Version: 6.00 Build 0)  -->
<svg version="1.1" id="Layer_1" xmlns="http://www.w3.org/2000/svg" xmlns:xlink="http://www.w3.org/1999/xlink" x="0px" y="0px"
	 viewBox="0 0 309.45 107.91" style="enable-background:new 0 0 309.45 107.91;" xml:space="preserve">
<style type="text/css">
	.st0{fill:#231F20;}
	.st1{fill:#EE1D23;}
	.st2{fill-rule:evenodd;clip-rule:evenodd;fill:#EE1D23;}
	.st3{fill:#939598;}
	.st4{fill:#BCBDC0;}
	.st5{fill:#FFFFFF;}
</style>
<rect class="st0" width="309.45" height="107.91"/>
<path class="st1" d="M227.23,38.51l3.47-11.95h0.05l3.46,11.95H227.23z M238.26,52.62h10.17l-10.49-34.6H223.5l-10.49,34.6h10.16
	l1.86-6.4h11.37L238.26,52.62z"/>
<path class="st1" d="M57.33,35.31c0-1.9,0.05-3.02,0.09-3.86c0.26-5.34,2.37-5.96,6.47-5.96c4.1,0,6.21,0.62,6.48,5.96
	c0.04,0.83,0.08,1.96,0.08,3.86c0,1.91-0.05,3.03-0.08,3.87c-0.27,5.33-2.38,5.96-6.48,5.96c-4.1,0-6.21-0.63-6.47-5.96
	C57.38,38.34,57.33,37.22,57.33,35.31 M63.89,53.24c10.44,0,15.48-1.83,16.19-11.26c0.17-2.24,0.21-4.54,0.21-6.67
	c0-2.12-0.04-4.41-0.21-6.67c-0.71-9.41-5.75-11.26-16.19-11.26c-10.44,0-15.47,1.84-16.19,11.26c-0.17,2.25-0.2,4.55-0.2,6.67
	c0,2.13,0.03,4.43,0.2,6.67C48.42,51.4,53.45,53.24,63.89,53.24"/>
<polygon class="st2" points="13.16,18.02 13.16,26.64 23.5,26.64 23.5,52.62 33.86,52.62 33.86,26.64 44.2,26.64 44.2,18.02 "/>
<rect x="162.1" y="18.02" class="st2" width="9.82" height="34.6"/>
<polygon class="st2" points="132.42,30.65 132.42,18.02 122.65,18.02 122.65,52.62 132.42,52.62 132.42,39.28 143.76,39.28 
	143.76,52.62 153.52,52.62 153.52,18.02 143.76,18.02 143.76,30.65 "/>
<path class="st1" d="M190.39,25.93h6.76c1.78,0,2.87,0.84,2.87,2.85c0,1.73-1.08,2.79-2.87,2.79h-6.76V25.93z M190.39,38.41h6.76
	c2.74,0,3.31,1.2,3.31,3.15c0,1.94-1.07,3.13-3.31,3.13h-6.76V38.41z M204.22,34.54c4.35-1.11,5.62-3.72,5.62-7.47
	c0-7.6-4.78-9.05-11.59-9.05h-17.62v34.6h18.5c8.51,0,11.38-3.67,11.38-9.32C210.51,39.37,209.62,35.89,204.22,34.54"/>
<path class="st1" d="M85.98,41.26h9.3c0.01,1.69,0.23,2.81,1.04,3.41c0.92,0.7,1.75,0.94,4.5,0.94c2.65,0,5.54,0,5.54-3.27
	c0-2.57-1.62-3.15-4.61-3.31c-7.42-0.39-10.1-0.61-12.86-2.66c-1.88-1.4-2.85-4.11-2.85-7.8c0-6.26,2.18-8.46,5.34-9.99
	c3.25-1.58,16.02-1.58,19.45,0c4.33,2,4.46,6.3,4.46,10.3H106c-0.02-2.03-0.48-2.61-0.85-3c-0.96-0.85-2.34-1.03-4.32-1.03
	c-2.4,0-5.17,0.11-5.17,3.02c0,2.22,0.95,3.16,3.48,3.31c3.47,0.22,10.29,0.44,12.73,1.88c3.42,2.02,4.3,4.75,4.3,9.22
	c0,6.44-2.3,8.33-5.5,9.74c-3.7,1.64-16.08,1.64-20.09-0.13C86.07,49.94,85.98,46.02,85.98,41.26"/>
<polygon class="st3" points="257.06,69.88 263.56,69.88 273.36,79.12 263.56,88.4 257.05,88.4 266.86,79.12 "/>
<polygon class="st4" points="270.39,69.88 276.89,69.88 286.68,79.12 276.88,88.4 270.38,88.4 280.18,79.12 "/>
<polygon class="st5" points="283.72,69.88 290.22,69.88 300.02,79.12 290.21,88.4 283.71,88.4 293.52,79.12 "/>
<polygon class="st5" points="14.04,69.97 18.2,69.97 18.2,84.9 25.52,84.9 25.52,88.4 14.04,88.4 "/>
<path class="st5" d="M36.02,80.17c0-0.98-0.44-2.71-2.32-2.71c-1.78,0-2.49,1.61-2.6,2.71H36.02z M31.13,83.01
	c0.14,1.75,1.83,2.57,3.77,2.57c1.42,0,2.57-0.19,3.69-0.57l0.55,2.81c-1.37,0.57-3.03,0.84-4.84,0.84c-4.54,0-7.14-2.62-7.14-6.83
	c0-3.39,2.13-7.14,6.75-7.14c4.32,0,5.96,3.37,5.96,6.67c0,0.71-0.08,1.34-0.14,1.67L31.13,83.01z"/>
<path class="st5" d="M49.47,82.08c-2.19,0-3.88,0.52-3.88,2.1c0,1.07,0.71,1.59,1.64,1.59c1.01,0,1.89-0.68,2.16-1.53
	c0.05-0.22,0.08-0.46,0.08-0.71V82.08z M53.49,85.17c0,1.26,0.05,2.49,0.22,3.23h-3.75l-0.24-1.34h-0.08
	c-0.87,1.06-2.24,1.64-3.83,1.64c-2.71,0-4.32-1.97-4.32-4.1c0-3.47,3.12-5.11,7.85-5.11v-0.17c0-0.71-0.38-1.72-2.43-1.72
	c-1.37,0-2.82,0.46-3.69,0.98l-0.77-2.65c0.93-0.52,2.76-1.2,5.19-1.2c4.46,0,5.85,2.62,5.85,5.77V85.17z"/>
<path class="st5" d="M65.6,80.71c0-0.25,0-0.52-0.06-0.77c-0.24-1.12-1.15-2.02-2.43-2.02c-1.92,0-2.87,1.69-2.87,3.8
	c0,2.24,1.12,3.66,2.84,3.66c1.2,0,2.19-0.81,2.43-1.99c0.05-0.27,0.08-0.6,0.08-0.93V80.71z M69.76,68.98v15.42
	c0,1.53,0.06,3.09,0.11,3.99h-3.69l-0.16-1.94h-0.08c-0.82,1.48-2.46,2.24-4.18,2.24c-3.17,0-5.72-2.71-5.72-6.86
	c-0.03-4.48,2.79-7.11,5.99-7.11c1.67,0,2.92,0.6,3.52,1.5h0.06v-7.24H69.76z"/>
<path class="st5" d="M73.09,75.03h4.16V88.4h-4.16V75.03z M73.09,88.4 M75.14,73.28c-1.39,0-2.3-0.98-2.3-2.21
	c0-1.26,0.93-2.21,2.35-2.21c1.42,0,2.3,0.95,2.32,2.21c0,1.23-0.9,2.21-2.35,2.21H75.14z"/>
<path class="st5" d="M80.58,79.29c0-1.67-0.05-3.06-0.11-4.27h3.61l0.19,1.86h0.08c0.55-0.88,1.89-2.16,4.13-2.16
	c2.73,0,4.79,1.83,4.79,5.77v7.9h-4.16v-7.41c0-1.73-0.6-2.9-2.11-2.9c-1.15,0-1.83,0.79-2.13,1.56c-0.11,0.27-0.14,0.66-0.14,1.04
	v7.71h-4.16V79.29z"/>
<path class="st5" d="M105.11,80.47c0-0.25-0.03-0.52-0.08-0.76c-0.3-1.1-1.09-1.83-2.24-1.83c-1.53,0-2.73,1.37-2.73,3.8
	c0,2,0.98,3.55,2.7,3.55c1.09,0,1.94-0.71,2.22-1.67c0.11-0.32,0.13-0.76,0.13-1.12V80.47z M109.26,86.46
	c0,2.57-0.52,4.67-2.05,6.02c-1.45,1.25-3.44,1.64-5.41,1.64c-1.78,0-3.61-0.36-4.81-1.01l0.82-3.17c0.85,0.49,2.3,1.01,3.88,1.01
	c1.97,0,3.47-1.04,3.47-3.53v-0.85h-0.06c-0.79,1.09-2.08,1.72-3.61,1.72c-3.31,0-5.66-2.68-5.66-6.51c0-4.32,2.76-7.05,6.07-7.05
	c1.83,0,2.98,0.79,3.66,1.89h0.05l0.14-1.59h3.61c-0.05,0.88-0.11,2-0.11,3.99V86.46z"/>
<rect x="118.46" y="69.97" class="st5" width="4.15" height="18.43"/>
<path class="st5" d="M126.09,79.29c0-1.67-0.05-3.06-0.11-4.27h3.61l0.19,1.86h0.08c0.55-0.88,1.89-2.16,4.13-2.16
	c2.73,0,4.78,1.83,4.78,5.77v7.9h-4.16v-7.41c0-1.73-0.6-2.9-2.1-2.9c-1.15,0-1.83,0.79-2.13,1.56c-0.11,0.27-0.14,0.66-0.14,1.04
	v7.71h-4.16V79.29z"/>
<path class="st5" d="M142.11,79.29c0-1.67-0.05-3.06-0.11-4.27h3.61l0.19,1.86h0.08c0.55-0.88,1.89-2.16,4.13-2.16
	c2.74,0,4.79,1.83,4.79,5.77v7.9h-4.16v-7.41c0-1.73-0.6-2.9-2.11-2.9c-1.15,0-1.83,0.79-2.13,1.56c-0.11,0.27-0.14,0.66-0.14,1.04
	v7.71h-4.16V79.29z"/>
<path class="st5" d="M164.36,85.72c1.64,0,2.66-1.61,2.66-4.02c0-1.97-0.77-3.99-2.66-3.99c-1.97,0-2.73,2.02-2.73,4.02
	c0,2.27,0.96,3.99,2.7,3.99H164.36z M164.28,88.69c-3.91,0-6.92-2.57-6.92-6.89c0-4.32,2.84-7.08,7.16-7.08
	c4.07,0,6.81,2.82,6.81,6.86c0,4.87-3.47,7.11-7.03,7.11H164.28z"/>
<path class="st5" d="M177,75.03l1.8,6.2c0.33,1.12,0.55,2.19,0.77,3.26h0.08c0.21-1.09,0.43-2.11,0.73-3.26l1.72-6.2h4.37
	l-4.97,13.37h-4.16l-4.86-13.37H177z"/>
<path class="st5" d="M195.5,82.08c-2.19,0-3.88,0.52-3.88,2.1c0,1.07,0.71,1.59,1.64,1.59c1.01,0,1.88-0.68,2.16-1.53
	c0.05-0.22,0.08-0.46,0.08-0.71V82.08z M199.52,85.17c0,1.26,0.05,2.49,0.22,3.23H196l-0.25-1.34h-0.08
	c-0.87,1.06-2.24,1.64-3.83,1.64c-2.71,0-4.32-1.97-4.32-4.1c0-3.47,3.11-5.11,7.84-5.11v-0.17c0-0.71-0.38-1.72-2.43-1.72
	c-1.37,0-2.82,0.46-3.69,0.98l-0.77-2.65c0.93-0.52,2.77-1.2,5.2-1.2c4.46,0,5.85,2.62,5.85,5.77V85.17z"/>
<path class="st5" d="M207.48,71.39v3.64h2.98v3.06h-2.98v4.87c0,1.61,0.41,2.35,1.64,2.35c0.57,0,0.85-0.03,1.23-0.11l0.03,3.14
	c-0.52,0.19-1.53,0.35-2.68,0.35c-1.34,0-2.46-0.46-3.15-1.15c-0.76-0.79-1.15-2.08-1.15-3.96v-5.5h-1.78v-3.06h1.78v-2.52
	L207.48,71.39z"/>
<path class="st5" d="M212.87,75.03h4.15V88.4h-4.15V75.03z M212.87,88.4 M214.91,73.28c-1.39,0-2.3-0.98-2.3-2.21
	c0-1.26,0.93-2.21,2.35-2.21c1.42,0,2.3,0.95,2.32,2.21c0,1.23-0.9,2.21-2.35,2.21H214.91z"/>
<path class="st5" d="M226.59,85.72c1.64,0,2.65-1.61,2.65-4.02c0-1.97-0.76-3.99-2.65-3.99c-1.97,0-2.74,2.02-2.74,4.02
	c0,2.27,0.96,3.99,2.71,3.99H226.59z M226.5,88.69c-3.91,0-6.91-2.57-6.91-6.89c0-4.32,2.84-7.08,7.16-7.08
	c4.08,0,6.81,2.82,6.81,6.86c0,4.87-3.47,7.11-7.03,7.11H226.5z"/>
<path class="st5" d="M235.74,79.29c0-1.67-0.06-3.06-0.11-4.27h3.61l0.19,1.86h0.08c0.54-0.88,1.89-2.16,4.13-2.16
	c2.73,0,4.79,1.83,4.79,5.77v7.9h-4.16v-7.41c0-1.73-0.6-2.9-2.11-2.9c-1.15,0-1.83,0.79-2.13,1.56c-0.11,0.27-0.14,0.66-0.14,1.04
	v7.71h-4.16V79.29z"/>
</svg>
