<?xml version="1.0" encoding="utf-8"?>
<!-- Generator: Adobe Illustrator 26.0.0, SVG Export Plug-In . SVG Version: 6.00 Build 0)  -->
<svg version="1.1" id="Layer_1" xmlns="http://www.w3.org/2000/svg" xmlns:xlink="http://www.w3.org/1999/xlink" x="0px" y="0px"
	 viewBox="0 0 286.85 84.15" style="enable-background:new 0 0 286.85 84.15;" xml:space="preserve">
<style type="text/css">
	.st0{fill:#FF0000;}
	.st1{fill-rule:evenodd;clip-rule:evenodd;fill:#FF0000;}
	.st2{fill:#999999;}
	.st3{fill:#666666;}
</style>
<g>
	<path class="st0" d="M214.07,28.56l3.47-11.95h0.05l3.46,11.95H214.07z M225.1,42.66h10.17l-10.49-34.6h-14.44l-10.49,34.6h10.16
		l1.86-6.4h11.37L225.1,42.66z"/>
	<path class="st0" d="M44.17,25.35c0-1.9,0.05-3.02,0.09-3.86c0.26-5.34,2.37-5.96,6.47-5.96c4.1,0,6.21,0.62,6.48,5.96
		c0.04,0.83,0.08,1.96,0.08,3.86c0,1.91-0.05,3.03-0.08,3.87c-0.27,5.33-2.38,5.96-6.48,5.96c-4.1,0-6.21-0.63-6.47-5.96
		C44.22,28.38,44.17,27.26,44.17,25.35 M50.73,43.28c10.44,0,15.48-1.83,16.19-11.26c0.17-2.24,0.21-4.54,0.21-6.67
		c0-2.12-0.04-4.41-0.21-6.67C66.2,9.27,61.17,7.43,50.73,7.43c-10.44,0-15.47,1.84-16.18,11.26c-0.17,2.25-0.2,4.55-0.2,6.67
		c0,2.13,0.03,4.43,0.2,6.67C35.25,41.45,40.29,43.28,50.73,43.28"/>
	<polygon class="st1" points="0,8.06 0,16.69 10.34,16.69 10.34,42.66 20.69,42.66 20.69,16.69 31.03,16.69 31.03,8.06 	"/>
	<rect x="148.94" y="8.06" class="st1" width="9.82" height="34.6"/>
	<polygon class="st1" points="119.26,20.69 119.26,8.06 109.48,8.06 109.48,42.66 119.26,42.66 119.26,29.32 130.6,29.32 
		130.6,42.66 140.35,42.66 140.35,8.06 130.6,8.06 130.6,20.69 	"/>
	<path class="st0" d="M177.22,15.97h6.76c1.78,0,2.87,0.84,2.87,2.85c0,1.73-1.08,2.79-2.87,2.79h-6.76V15.97z M177.22,28.45h6.76
		c2.74,0,3.31,1.2,3.31,3.15c0,1.94-1.07,3.13-3.31,3.13h-6.76V28.45z M191.06,24.58c4.35-1.11,5.62-3.72,5.62-7.47
		c0-7.6-4.78-9.05-11.59-9.05h-17.62v34.6h18.5c8.51,0,11.38-3.67,11.38-9.32C197.35,29.41,196.45,25.94,191.06,24.58"/>
	<path class="st0" d="M72.81,31.3h9.3c0.01,1.69,0.23,2.81,1.04,3.41c0.92,0.7,1.75,0.94,4.5,0.94c2.65,0,5.54,0,5.54-3.27
		c0-2.57-1.62-3.15-4.61-3.31c-7.42-0.39-10.1-0.61-12.86-2.66c-1.88-1.4-2.85-4.11-2.85-7.8c0-6.26,2.18-8.46,5.34-9.99
		c3.25-1.58,16.02-1.58,19.45,0c4.33,2,4.46,6.3,4.46,10.3h-9.29c-0.02-2.03-0.48-2.61-0.85-3c-0.96-0.85-2.34-1.03-4.32-1.03
		c-2.4,0-5.17,0.11-5.17,3.02c0,2.22,0.95,3.16,3.48,3.31c3.47,0.22,10.29,0.44,12.73,1.88c3.42,2.02,4.3,4.75,4.3,9.22
		c0,6.44-2.3,8.33-5.5,9.74c-3.7,1.64-16.08,1.64-20.09-0.13C72.9,39.98,72.81,36.06,72.81,31.3"/>
	<polygon class="st2" points="243.9,59.92 250.4,59.92 260.2,69.16 250.39,78.44 243.89,78.44 253.69,69.16 	"/>
	<polygon class="st3" points="257.23,59.92 263.73,59.92 273.52,69.16 263.72,78.44 257.22,78.44 267.02,69.16 	"/>
	<polygon points="270.56,59.92 277.06,59.92 286.85,69.16 277.05,78.44 270.54,78.44 280.35,69.16 	"/>
	<polygon points="0.88,60.01 5.03,60.01 5.03,74.94 12.36,74.94 12.36,78.44 0.88,78.44 	"/>
	<path d="M22.86,70.21c0-0.98-0.44-2.71-2.32-2.71c-1.78,0-2.49,1.61-2.6,2.71H22.86z M17.96,73.05c0.14,1.75,1.83,2.57,3.77,2.57
		c1.42,0,2.57-0.19,3.69-0.57l0.55,2.81c-1.37,0.57-3.03,0.84-4.84,0.84c-4.54,0-7.14-2.62-7.14-6.83c0-3.39,2.13-7.14,6.75-7.14
		c4.32,0,5.96,3.37,5.96,6.67c0,0.71-0.08,1.34-0.14,1.67L17.96,73.05z"/>
	<path d="M36.31,72.12c-2.19,0-3.88,0.52-3.88,2.1c0,1.07,0.71,1.59,1.64,1.59c1.01,0,1.89-0.68,2.16-1.53
		c0.05-0.22,0.08-0.46,0.08-0.71V72.12z M40.33,75.21c0,1.26,0.05,2.49,0.22,3.23H36.8l-0.24-1.34h-0.08
		c-0.87,1.06-2.24,1.64-3.83,1.64c-2.71,0-4.32-1.97-4.32-4.1c0-3.47,3.12-5.11,7.85-5.11v-0.17c0-0.71-0.38-1.72-2.43-1.72
		c-1.37,0-2.82,0.46-3.69,0.98l-0.77-2.65c0.93-0.52,2.76-1.2,5.19-1.2c4.46,0,5.85,2.62,5.85,5.77V75.21z"/>
	<path d="M52.44,70.76c0-0.25,0-0.52-0.06-0.77c-0.24-1.12-1.15-2.02-2.43-2.02c-1.92,0-2.87,1.69-2.87,3.8
		c0,2.24,1.12,3.66,2.84,3.66c1.2,0,2.19-0.81,2.43-1.99c0.05-0.27,0.08-0.6,0.08-0.93V70.76z M56.59,59.03v15.42
		c0,1.53,0.06,3.09,0.11,3.99h-3.69l-0.16-1.94h-0.08c-0.82,1.48-2.46,2.24-4.18,2.24c-3.17,0-5.72-2.71-5.72-6.86
		c-0.03-4.48,2.79-7.11,5.99-7.11c1.67,0,2.92,0.6,3.52,1.5h0.06v-7.24H56.59z"/>
	<path d="M59.93,65.07h4.16v13.37h-4.16V65.07z M59.93,78.44 M61.98,63.32c-1.4,0-2.3-0.98-2.3-2.21c0-1.26,0.93-2.21,2.35-2.21
		c1.42,0,2.3,0.95,2.32,2.21c0,1.23-0.9,2.21-2.35,2.21H61.98z"/>
	<path d="M67.42,69.34c0-1.67-0.05-3.06-0.11-4.27h3.61l0.19,1.86h0.08c0.55-0.88,1.89-2.16,4.13-2.16c2.73,0,4.79,1.83,4.79,5.77
		v7.9h-4.16v-7.41c0-1.73-0.6-2.9-2.11-2.9c-1.15,0-1.83,0.79-2.13,1.56c-0.11,0.27-0.14,0.66-0.14,1.04v7.71h-4.16V69.34z"/>
	<path d="M91.94,70.51c0-0.25-0.03-0.52-0.08-0.76c-0.3-1.1-1.09-1.83-2.24-1.83c-1.53,0-2.73,1.37-2.73,3.8
		c0,2,0.98,3.55,2.71,3.55c1.09,0,1.94-0.71,2.22-1.67c0.11-0.32,0.13-0.76,0.13-1.12V70.51z M96.1,76.5c0,2.57-0.52,4.67-2.05,6.02
		c-1.45,1.25-3.44,1.64-5.41,1.64c-1.78,0-3.61-0.36-4.81-1.01l0.82-3.17c0.85,0.49,2.3,1.01,3.88,1.01c1.97,0,3.47-1.04,3.47-3.53
		v-0.85h-0.06c-0.79,1.09-2.08,1.72-3.61,1.72c-3.31,0-5.66-2.68-5.66-6.51c0-4.32,2.76-7.05,6.07-7.05c1.83,0,2.98,0.79,3.66,1.89
		h0.05l0.14-1.59h3.61c-0.05,0.88-0.11,2-0.11,3.99V76.5z"/>
	<rect x="105.3" y="60.01" width="4.15" height="18.43"/>
	<path d="M112.92,69.34c0-1.67-0.05-3.06-0.11-4.27h3.61l0.19,1.86h0.08c0.55-0.88,1.89-2.16,4.13-2.16c2.73,0,4.78,1.83,4.78,5.77
		v7.9h-4.16v-7.41c0-1.73-0.6-2.9-2.1-2.9c-1.15,0-1.83,0.79-2.13,1.56c-0.11,0.27-0.14,0.66-0.14,1.04v7.71h-4.16V69.34z"/>
	<path d="M128.94,69.34c0-1.67-0.05-3.06-0.11-4.27h3.61l0.19,1.86h0.08c0.55-0.88,1.89-2.16,4.13-2.16c2.74,0,4.79,1.83,4.79,5.77
		v7.9h-4.16v-7.41c0-1.73-0.6-2.9-2.11-2.9c-1.15,0-1.83,0.79-2.13,1.56c-0.11,0.27-0.14,0.66-0.14,1.04v7.71h-4.16V69.34z"/>
	<path d="M151.2,75.76c1.64,0,2.66-1.61,2.66-4.02c0-1.97-0.77-3.99-2.66-3.99c-1.97,0-2.73,2.02-2.73,4.02
		c0,2.27,0.96,3.99,2.7,3.99H151.2z M151.12,78.74c-3.91,0-6.92-2.57-6.92-6.89c0-4.32,2.84-7.08,7.16-7.08
		c4.07,0,6.81,2.82,6.81,6.86c0,4.87-3.47,7.11-7.03,7.11H151.12z"/>
	<path d="M163.83,65.07l1.8,6.2c0.33,1.12,0.55,2.19,0.77,3.26h0.08c0.21-1.09,0.43-2.11,0.73-3.26l1.72-6.2h4.37l-4.97,13.37h-4.16
		l-4.86-13.37H163.83z"/>
	<path d="M182.34,72.12c-2.19,0-3.88,0.52-3.88,2.1c0,1.07,0.71,1.59,1.64,1.59c1.01,0,1.88-0.68,2.16-1.53
		c0.05-0.22,0.08-0.46,0.08-0.71V72.12z M186.36,75.21c0,1.26,0.05,2.49,0.22,3.23h-3.74l-0.25-1.34h-0.08
		c-0.87,1.06-2.24,1.64-3.83,1.64c-2.71,0-4.32-1.97-4.32-4.1c0-3.47,3.11-5.11,7.84-5.11v-0.17c0-0.71-0.38-1.72-2.43-1.72
		c-1.37,0-2.82,0.46-3.69,0.98l-0.77-2.65c0.93-0.52,2.77-1.2,5.2-1.2c4.46,0,5.85,2.62,5.85,5.77V75.21z"/>
	<path d="M194.31,61.43v3.64h2.98v3.06h-2.98V73c0,1.61,0.41,2.35,1.64,2.35c0.57,0,0.85-0.03,1.23-0.11l0.03,3.14
		c-0.52,0.19-1.53,0.35-2.68,0.35c-1.34,0-2.46-0.46-3.15-1.15c-0.76-0.79-1.15-2.08-1.15-3.96v-5.5h-1.78v-3.06h1.78v-2.52
		L194.31,61.43z"/>
	<path d="M199.7,65.07h4.15v13.37h-4.15V65.07z M199.7,78.44 M201.75,63.32c-1.39,0-2.3-0.98-2.3-2.21c0-1.26,0.93-2.21,2.35-2.21
		c1.42,0,2.3,0.95,2.32,2.21c0,1.23-0.9,2.21-2.35,2.21H201.75z"/>
	<path d="M213.42,75.76c1.64,0,2.65-1.61,2.65-4.02c0-1.97-0.76-3.99-2.65-3.99c-1.97,0-2.74,2.02-2.74,4.02
		c0,2.27,0.96,3.99,2.71,3.99H213.42z M213.34,78.74c-3.91,0-6.91-2.57-6.91-6.89c0-4.32,2.84-7.08,7.16-7.08
		c4.08,0,6.81,2.82,6.81,6.86c0,4.87-3.47,7.11-7.03,7.11H213.34z"/>
	<path d="M222.58,69.34c0-1.67-0.06-3.06-0.11-4.27h3.61l0.19,1.86h0.08c0.54-0.88,1.89-2.16,4.13-2.16c2.73,0,4.79,1.83,4.79,5.77
		v7.9h-4.16v-7.41c0-1.73-0.6-2.9-2.11-2.9c-1.15,0-1.83,0.79-2.13,1.56c-0.11,0.27-0.14,0.66-0.14,1.04v7.71h-4.16V69.34z"/>
</g>
</svg>
