<?xml version="1.0" encoding="utf-8"?>
<!-- Generator: Adobe Illustrator 26.0.0, SVG Export Plug-In . SVG Version: 6.00 Build 0)  -->
<svg version="1.1" id="Layer_1" xmlns="http://www.w3.org/2000/svg" xmlns:xlink="http://www.w3.org/1999/xlink" x="0px" y="0px"
	 viewBox="0 0 243.06 42.21" style="enable-background:new 0 0 243.06 42.21;" xml:space="preserve">
<style type="text/css">
	.st0{fill:#231F20;}
	.st1{fill:#FFFFFF;}
	.st2{fill-rule:evenodd;clip-rule:evenodd;fill:#FFFFFF;}
</style>
<rect class="st0" width="243.06" height="42.21"/>
<path class="st1" d="M216.68,24.9l3.47-11.95h0.05l3.46,11.95H216.68z M227.71,39h10.17L227.39,4.4h-14.44L202.47,39h10.16l1.86-6.4
	h11.37L227.71,39z"/>
<path class="st1" d="M46.78,21.69c0-1.9,0.05-3.02,0.09-3.86c0.26-5.34,2.37-5.96,6.47-5.96c4.1,0,6.21,0.62,6.48,5.96
	c0.04,0.83,0.08,1.96,0.08,3.86c0,1.91-0.05,3.03-0.08,3.87c-0.27,5.33-2.38,5.96-6.48,5.96c-4.1,0-6.21-0.63-6.47-5.96
	C46.83,24.72,46.78,23.6,46.78,21.69 M53.34,39.62c10.44,0,15.48-1.83,16.19-11.26c0.17-2.24,0.21-4.54,0.21-6.67
	c0-2.12-0.04-4.41-0.21-6.67C68.81,5.61,63.78,3.77,53.34,3.77c-10.44,0-15.47,1.84-16.19,11.26c-0.17,2.25-0.2,4.55-0.2,6.67
	c0,2.13,0.03,4.43,0.2,6.67C37.86,37.79,42.9,39.62,53.34,39.62"/>
<polygon class="st2" points="2.61,4.4 2.61,13.03 12.95,13.03 12.95,39 23.3,39 23.3,13.03 33.65,13.03 33.65,4.4 "/>
<rect x="151.55" y="4.4" class="st2" width="9.82" height="34.6"/>
<polygon class="st2" points="121.87,17.03 121.87,4.4 112.09,4.4 112.09,39 121.87,39 121.87,25.66 133.21,25.66 133.21,39 
	142.96,39 142.96,4.4 133.21,4.4 133.21,17.03 "/>
<path class="st1" d="M179.83,12.31h6.76c1.78,0,2.87,0.84,2.87,2.85c0,1.73-1.08,2.79-2.87,2.79h-6.76V12.31z M179.83,24.79h6.76
	c2.74,0,3.31,1.2,3.31,3.15c0,1.94-1.07,3.13-3.31,3.13h-6.76V24.79z M193.67,20.92c4.35-1.11,5.62-3.72,5.62-7.47
	c0-7.6-4.78-9.05-11.59-9.05h-17.62V39h18.5c8.51,0,11.38-3.67,11.38-9.32C199.96,25.75,199.06,22.28,193.67,20.92"/>
<path class="st1" d="M75.42,27.64h9.3c0.01,1.69,0.23,2.81,1.04,3.41c0.92,0.7,1.75,0.94,4.5,0.94c2.65,0,5.54,0,5.54-3.27
	c0-2.57-1.62-3.15-4.61-3.31c-7.42-0.39-10.1-0.61-12.86-2.66c-1.88-1.4-2.85-4.11-2.85-7.8c0-6.26,2.18-8.46,5.34-9.99
	c3.25-1.58,16.02-1.58,19.45,0c4.33,2,4.46,6.3,4.46,10.3h-9.29c-0.02-2.03-0.48-2.61-0.85-3c-0.96-0.85-2.34-1.03-4.32-1.03
	c-2.4,0-5.17,0.11-5.17,3.02c0,2.22,0.95,3.16,3.48,3.31c3.47,0.22,10.29,0.44,12.73,1.88c3.42,2.02,4.3,4.75,4.3,9.22
	c0,6.44-2.3,8.33-5.5,9.74c-3.7,1.64-16.08,1.64-20.09-0.13C75.51,36.32,75.42,32.4,75.42,27.64"/>
</svg>
